<svg width="40" height="40" viewBox="0 0 40 40" fill="none" xmlns="http://www.w3.org/2000/svg">
<path d="M39.5 20C39.5 30.7696 30.7696 39.5 20 39.5C9.23045 39.5 0.5 30.7696 0.5 20C0.5 9.23045 9.23045 0.5 20 0.5C30.7696 0.5 39.5 9.23045 39.5 20ZM22.1213 14.6213C23.2929 13.4497 23.2929 11.5503 22.1213 10.3787C20.9497 9.20711 19.0503 9.20711 17.8787 10.3787L10.3787 17.8787C9.20711 19.0503 9.20711 20.9497 10.3787 22.1213L17.8787 29.6213C19.0503 30.7929 20.9497 30.7929 22.1213 29.6213C23.2929 28.4497 23.2929 26.5503 22.1213 25.3787L19.7426 23H27.5C29.1569 23 30.5 21.6569 30.5 20C30.5 18.3431 29.1569 17 27.5 17L19.7426 17L22.1213 14.6213Z" fill="#86A4FF" stroke="#6A6A6A"/>
</svg>
