<svg width="40" height="40" viewBox="0 0 40 40" fill="none" xmlns="http://www.w3.org/2000/svg">
<path d="M39.5 20C39.5 30.7696 30.7696 39.5 20 39.5C9.23045 39.5 0.5 30.7696 0.5 20C0.5 9.23045 9.23045 0.5 20 0.5C30.7696 0.5 39.5 9.23045 39.5 20ZM29.6213 17.8787L22.1213 10.3787C20.9497 9.20711 19.0503 9.20711 17.8787 10.3787C16.7071 11.5503 16.7071 13.4497 17.8787 14.6213L20.2574 17L12.5 17C10.8431 17 9.5 18.3431 9.5 20C9.5 21.6569 10.8431 23 12.5 23H20.2574L17.8787 25.3787C16.7071 26.5503 16.7071 28.4497 17.8787 29.6213C19.0503 30.7929 20.9497 30.7929 22.1213 29.6213L29.6213 22.1213C30.7929 20.9497 30.7929 19.0503 29.6213 17.8787Z" fill="#86A4FF" stroke="#6A6A6A"/>
</svg>
