<svg width="20" height="20" viewBox="0 0 20 20" fill="none" xmlns="http://www.w3.org/2000/svg">
<path fill-rule="evenodd" clip-rule="evenodd" d="M0.488155 0.488155C1.13903 -0.162718 2.1943 -0.162718 2.84518 0.488155L10 7.64298L17.1548 0.488155C17.8057 -0.162718 18.861 -0.162718 19.5118 0.488155C20.1627 1.13903 20.1627 2.1943 19.5118 2.84518L12.357 10L19.5118 17.1548C20.1627 17.8057 20.1627 18.861 19.5118 19.5118C18.861 20.1627 17.8057 20.1627 17.1548 19.5118L10 12.357L2.84518 19.5118C2.1943 20.1627 1.13903 20.1627 0.488155 19.5118C-0.162718 18.861 -0.162718 17.8057 0.488155 17.1548L7.64298 10L0.488155 2.84518C-0.162718 2.1943 -0.162718 1.13903 0.488155 0.488155Z" fill="#0F173F"/>
</svg>
