<svg width="31" height="30" viewBox="0 0 31 30" fill="none" xmlns="http://www.w3.org/2000/svg">
<g clip-path="url(#clip0_53_132)">
<path fill-rule="evenodd" clip-rule="evenodd" d="M15.5225 0.625C11.9616 0.626848 8.51735 1.88807 5.80577 4.18315C3.0942 6.47823 1.29207 9.65751 0.721617 13.1525C0.151169 16.6475 0.849595 20.2303 2.69202 23.2602C4.53445 26.2902 7.40074 28.5697 10.7783 29.6912C11.5235 29.8295 11.8042 29.3677 11.8042 28.975C11.8042 28.5823 11.7893 27.4438 11.7843 26.199C7.61143 27.1005 6.72967 24.4381 6.72967 24.4381C6.04909 22.7093 5.06548 22.2549 5.06548 22.2549C3.70433 21.3312 5.16733 21.3485 5.16733 21.3485C6.67503 21.4547 7.46738 22.8871 7.46738 22.8871C8.80369 25.1667 10.9771 24.5073 11.8315 24.122C11.9656 23.1563 12.3556 22.4994 12.7853 22.1264C9.45197 21.751 5.94973 20.4717 5.94973 14.7568C5.92907 13.2746 6.48221 11.8413 7.4947 10.7534C7.3407 10.378 6.82653 8.86154 7.64124 6.80179C7.64124 6.80179 8.90056 6.40169 11.7669 8.33055C14.2255 7.66203 16.8195 7.66203 19.2781 8.33055C22.142 6.40169 23.3988 6.80179 23.3988 6.80179C24.216 8.8566 23.7019 10.373 23.5479 10.7534C24.5635 11.8415 25.1178 13.2773 25.0953 14.7617C25.0953 20.489 21.5856 21.751 18.2473 22.119C18.7838 22.5833 19.2632 23.4897 19.2632 24.8827C19.2632 26.8782 19.2458 28.4835 19.2458 28.975C19.2458 29.3726 19.5165 29.8369 20.2766 29.6912C23.6546 28.5696 26.5212 26.2896 28.3636 23.2592C30.206 20.2287 30.904 16.6454 30.3329 13.1501C29.7618 9.65475 27.9588 6.47544 25.2463 4.18076C22.5339 1.88607 19.0889 0.625676 15.5275 0.625H15.5225Z" fill="#191717"/>
<path d="M6.20243 22.04C6.17014 22.1141 6.05091 22.1363 5.95404 22.0845C5.85717 22.0326 5.78514 21.9363 5.81992 21.8597C5.85469 21.7832 5.97143 21.7634 6.0683 21.8153C6.16517 21.8671 6.23968 21.9659 6.20243 22.04Z" fill="#191717"/>
<path d="M6.81101 22.7142C6.75957 22.74 6.70072 22.7472 6.64453 22.7346C6.58835 22.722 6.53832 22.6903 6.50301 22.6451C6.40614 22.5414 6.38626 22.3981 6.46078 22.3339C6.53529 22.2697 6.66943 22.2993 6.7663 22.4031C6.86317 22.5068 6.88552 22.65 6.81101 22.7142Z" fill="#191717"/>
<path d="M7.40207 23.5712C7.31016 23.6354 7.15367 23.5712 7.06674 23.4428C7.0427 23.4198 7.02358 23.3921 7.01052 23.3616C6.99746 23.331 6.99072 23.2982 6.99072 23.265C6.99072 23.2318 6.99746 23.1989 7.01052 23.1684C7.02358 23.1378 7.0427 23.1102 7.06674 23.0872C7.15864 23.0254 7.31513 23.0872 7.40207 23.2131C7.489 23.3391 7.49148 23.507 7.40207 23.5712Z" fill="#191717"/>
<path d="M8.20449 24.401C8.12253 24.4924 7.95611 24.4677 7.8195 24.3442C7.68289 24.2208 7.65059 24.0528 7.73256 23.9639C7.81452 23.875 7.98094 23.8997 8.12252 24.0207C8.2641 24.1417 8.29143 24.3121 8.20449 24.401Z" fill="#191717"/>
<path d="M9.32969 24.8851C9.29243 25.0012 9.12353 25.0531 8.95463 25.0037C8.78572 24.9543 8.67395 24.816 8.70624 24.6974C8.73853 24.5789 8.90992 24.5245 9.0813 24.5789C9.25269 24.6332 9.36198 24.7641 9.32969 24.8851Z" fill="#191717"/>
<path d="M10.5569 24.9691C10.5569 25.0901 10.4178 25.1938 10.239 25.1963C10.0601 25.1988 9.91357 25.1 9.91357 24.979C9.91357 24.8579 10.0527 24.7542 10.2315 24.7517C10.4103 24.7493 10.5569 24.8456 10.5569 24.9691Z" fill="#191717"/>
<path d="M11.6995 24.7789C11.7218 24.8999 11.5976 25.0259 11.4188 25.0555C11.24 25.0852 11.0835 25.0135 11.0611 24.895C11.0388 24.7764 11.1679 24.648 11.3418 24.6159C11.5157 24.5838 11.6771 24.6579 11.6995 24.7789Z" fill="#191717"/>
</g>
<defs>
<clipPath id="clip0_53_132">
<rect width="30" height="30" fill="white" transform="translate(0.521973)"/>
</clipPath>
</defs>
</svg>
