<svg width="31" height="30" viewBox="0 0 31 30" fill="none" xmlns="http://www.w3.org/2000/svg">
<rect x="0.521973" width="30" height="30" rx="15" fill="#1275B1"/>
<path d="M11.899 8.24159C11.899 9.24289 11.0311 10.0546 9.96049 10.0546C8.88987 10.0546 8.02197 9.24289 8.02197 8.24159C8.02197 7.24029 8.88987 6.42857 9.96049 6.42857C11.0311 6.42857 11.899 7.24029 11.899 8.24159Z" fill="white"/>
<path d="M8.28707 11.3873H11.6008V21.4286H8.28707V11.3873Z" fill="white"/>
<path d="M16.9358 11.3873H13.6221V21.4286H16.9358C16.9358 21.4286 16.9358 18.2674 16.9358 16.2909C16.9358 15.1046 17.3409 13.9131 18.9572 13.9131C20.7838 13.9131 20.7728 15.4656 20.7643 16.6683C20.7531 18.2405 20.7797 19.8448 20.7797 21.4286H24.0934V16.129C24.0653 12.745 23.1836 11.1858 20.2826 11.1858C18.5599 11.1858 17.492 11.9679 16.9358 12.6755V11.3873Z" fill="white"/>
</svg>
