<svg width="29" height="25" viewBox="0 0 29 25" fill="none" xmlns="http://www.w3.org/2000/svg">
<path fill-rule="evenodd" clip-rule="evenodd" d="M18.3802 0.523024C17.6828 1.22039 17.6828 2.35104 18.3802 3.0484L22.4746 7.14286H12.5C5.59645 7.14286 1.33514e-05 12.7393 1.33514e-05 19.6429V23.2143C1.33514e-05 24.2005 0.799503 25 1.78573 25C2.77195 25 3.57144 24.2005 3.57144 23.2143V19.6429C3.57144 14.7117 7.5689 10.7143 12.5 10.7143H22.4746L18.3802 14.8087C17.6828 15.5061 17.6828 16.6368 18.3802 17.3341C19.0775 18.0315 20.2082 18.0315 20.9056 17.3341L28.0484 10.1913C28.7458 9.4939 28.7458 8.36325 28.0484 7.66588L20.9056 0.523024C20.2082 -0.174341 19.0775 -0.174341 18.3802 0.523024Z" fill="#C3D2FF"/>
</svg>
