<svg width="28" height="25" viewBox="0 0 28 25" fill="none" xmlns="http://www.w3.org/2000/svg">
<path fill-rule="evenodd" clip-rule="evenodd" d="M17.9384 24.477C17.2578 23.7796 17.2578 22.649 17.9384 21.9516L21.9344 17.8571H12.1995C5.46194 17.8571 2.86102e-05 12.2607 2.86102e-05 5.35714V1.78572C2.86102e-05 0.799492 0.7803 0 1.74282 0C2.70533 0 3.48561 0.799492 3.48561 1.78572V5.35714C3.48561 10.2883 7.38697 14.2857 12.1995 14.2857H21.9344L17.9384 10.1913C17.2578 9.4939 17.2578 8.36325 17.9384 7.66588C18.619 6.96852 19.7224 6.96852 20.403 7.66588L27.3742 14.8087C28.0548 15.5061 28.0548 16.6368 27.3742 17.3341L20.403 24.477C19.7224 25.1743 18.619 25.1743 17.9384 24.477Z" fill="#3366FF"/>
</svg>
