<svg width="37" height="30" viewBox="0 0 37 30" fill="none" xmlns="http://www.w3.org/2000/svg">
<path d="M11.4636 30C7.24401 30 3.31066 28.7727 0 26.6552C2.81086 26.837 7.7714 26.4015 10.8568 23.4584C6.21532 23.2454 4.12208 19.6856 3.84905 18.1643C4.24343 18.3164 6.12431 18.499 7.18609 18.073C1.84682 16.7343 1.02773 12.0487 1.20975 10.6187C2.21087 11.3185 3.90972 11.5619 4.57713 11.501C-0.398096 7.94118 1.39177 2.58621 2.27154 1.43002C5.84194 6.37652 11.1929 9.15466 17.8127 9.30919C17.6879 8.76177 17.6219 8.19185 17.6219 7.60649C17.6219 3.40554 21.0175 0 25.2061 0C27.3946 0 29.3666 0.929679 30.7509 2.41675C32.2134 2.07405 34.4143 1.27183 35.4903 0.578093C34.9479 2.52536 33.2595 4.14977 32.2381 4.75184C32.2466 4.77232 32.2298 4.73127 32.2381 4.75184C33.1353 4.61613 35.5628 4.14961 36.5217 3.49899C36.0475 4.59294 34.2574 6.41182 32.7883 7.43012C33.0617 19.4844 23.8389 30 11.4636 30Z" fill="#47ACDF"/>
</svg>
